<?xml version="1.0" encoding="UTF-8"?>
<svg id="Ebene_2" xmlns="http://www.w3.org/2000/svg" xmlns:xlink="http://www.w3.org/1999/xlink" viewBox="0 0 635 145">
  <defs>
    <style>
      .cls-1 {
        fill: none;
      }

      .cls-2 {
        fill: #fff;
      }

      .cls-3 {
        clip-path: url(#clippath);
      }
    </style>
    <clipPath id="clippath">
      <rect class="cls-1" width="635" height="145"/>
    </clipPath>
  </defs>
  <g id="Ebene_1-2" data-name="Ebene_1">
    <g class="cls-3">
      <g>
        <path class="cls-2" d="M0,53.28v-2.61h20.32v2.61c-3.12,0-5.49,1.74-5.49,4.23v39.08l25.43-40.07c1.47-2.34,1.25-3.24-1.87-3.24v-2.61h15.83v2.61c-3.12,0-7.6.7-9.1,3.24l-20.32,32.11c5.36,26.76,21.45,52.77,36.41,52.77v2.61h-6.23c-15.96,0-32.17-26.38-37.53-43.68l-2.62,3.98v32.85c0,2.49,2.37,4.23,5.49,4.23v2.61H0v-2.61c3.12,0,5.49-1.74,5.49-4.23V57.51c0-2.49-2.37-4.23-5.49-4.23Z"/>
        <path class="cls-2" d="M66.8,137.16V57.51c0-2.49-2.37-4.23-5.49-4.23v-2.61h27.43c17.46,0,30.42,7.09,30.42,25.14,0,15.81-9.73,24.02-23.69,25.89,6.98,21.78,16.83,39.7,29.55,39.7v2.61h-6.23c-15.71,0-28.43-24.64-33.66-41.82h-8.98v34.97c0,2.49,2.37,4.23,5.49,4.23v2.61h-20.32v-2.61c3.12,0,5.49-1.74,5.49-4.23ZM88.75,54.52h-12.59v43.93h12.59c12.34,0,20.45-11.08,20.45-22.65s-8.1-21.28-20.45-21.28Z"/>
        <path class="cls-2" d="M142.82,52.28c-3.12,0-5.49,1.74-5.49,4.23v59.49c0,17.3,11.72,25.26,22.44,25.26,13.59,0,23.44-9.96,23.44-27.25v-57.5c0-2.49-2.37-4.23-5.49-4.23v-2.61h15.34v2.61c-3.12,0-5.49,1.74-5.49,4.23v57.5c0,20.54-12.72,30.99-27.8,30.99-18.7,0-31.79-10.45-31.79-29v-59.49c0-2.49-2.37-4.23-5.49-4.23v-2.61h20.32v2.61Z"/>
        <path class="cls-2" d="M196.38,50.67h16.96l30.8,69.57v-62.72c0-2.49-2.37-4.23-5.49-4.23v-2.61h15.34v2.61c-3.12,0-5.49,1.74-5.49,4.23v86.49h-4.36l-37.9-82.51v75.67c0,2.49,2.37,4.23,5.49,4.23v2.61h-15.34v-2.61c3.12,0,5.49-1.74,5.49-4.23V57.51c0-2.49-2.37-4.23-5.49-4.23v-2.61Z"/>
        <path class="cls-2" d="M288.54,50.67l23.44,86.74c.62,2.37,4.11,3.98,7.23,3.98v2.61h-21.07v-2.61c3.12,0,4.36-1.62,3.74-3.98l-5.24-19.54h-27.06l-4.86,19.54c-.62,2.37.75,3.98,3.86,3.98v2.61h-15.83v-2.61c3.12,0,6.48-1.62,7.11-3.98l21.44-86.74h7.23ZM282.56,65.35l-11.97,48.16h24.94l-12.96-48.16Z"/>
        <path class="cls-2" d="M353.47,50.67h15.46l20.82,77.41,18.58-77.41h15.34v2.61c-3.12,0-5.49,1.74-5.49,4.23v79.65c0,2.49,2.37,4.23,5.49,4.23v2.61h-20.32v-2.61c3.12,0,5.49-1.74,5.49-4.23v-68.32l-18.08,75.17h-7.23l-20.2-74.79v67.95c0,2.49,2.37,4.23,5.49,4.23v2.61h-15.34v-2.61c3.12,0,5.49-1.74,5.49-4.23V57.51c0-2.49-2.37-4.23-5.49-4.23v-2.61Z"/>
        <path class="cls-2" d="M427.61,53.28v-2.61h47.52l4.99,22.65h-2.62c-1.87-8.34-6.61-18.29-13.46-18.29h-21.59v39.58h22.74c2.49,0,4.24-2.37,4.24-5.48h2.62v15.31h-2.62c0-3.11-1.75-5.48-4.24-5.48h-22.74v40.7h22.62c6.98,0,12.34-10.45,14.09-18.92h2.62l-5.48,23.27h-48.68v-2.61c3.12,0,5.49-1.74,5.49-4.23V57.51c0-2.49-2.37-4.23-5.49-4.23Z"/>
        <path class="cls-2" d="M485.45,53.34v-2.61l27.43-.13c18.7,0,30.42,17.3,30.42,46.55s-11.72,46.92-30.42,46.92h-27.43v-2.62c3.12,0,5.49-1.74,5.49-4.23V57.57c0-2.49-2.37-4.23-5.49-4.23ZM512.89,140.33c13.59,0,20.45-20.41,20.45-43.18s-6.86-42.69-20.45-42.69l-12.59.13v85.75h12.59Z"/>
        <path class="cls-2" d="M547.97,53.28v-2.61h20.32v2.61c-3.12,0-5.49,1.74-5.49,4.23v79.65c0,2.49,2.37,4.23,5.49,4.23v2.61h-20.32v-2.61c3.12,0,5.49-1.74,5.49-4.23V57.51c0-2.49-2.37-4.23-5.49-4.23Z"/>
        <path class="cls-2" d="M604.33,50.67l23.44,86.74c.62,2.37,4.11,3.98,7.23,3.98v2.61h-21.07v-2.61c3.12,0,4.36-1.62,3.74-3.98l-5.24-19.54h-27.06l-4.86,19.54c-.62,2.37.75,3.98,3.87,3.98v2.61h-15.83v-2.61c3.12,0,6.48-1.62,7.11-3.98l21.44-86.74h7.23ZM598.34,65.35l-11.97,48.16h24.94l-12.97-48.16Z"/>
        <path class="cls-2" d="M160.6,0c2.02,5.82,4.04,11.63,6.08,17.53-.46.92-1.04,1.78-1.35,2.74-.74,2.29.55,4.62,2.73,5.14,2.05.49,4.38-.78,4.58-3.04.18-2.1,1.35-3,2.85-3.9,2.65-1.59,5.28-3.2,8.25-5.01.06,2.95-1.5,5.04-2.23,7.35-.72,2.29-1.61,4.54-2.47,6.79-.9,2.34-1.85,4.65-2.9,7.27-10.62-1.7-21.11-2.16-31.79.04-3.11-7.04-5.52-14.01-8.47-21.47,2.66.68,4.15,2.14,5.87,3.12,1.79,1.02,3.51,2.17,5.36,3.32.13.79.23,1.56.4,2.32.38,1.74,1.47,2.85,3.21,3.19,1.62.32,2.93-.34,3.88-1.66.99-1.38.88-2.79-.02-4.18-.31-.48-.65-.94-1.17-1.69,2.08-5.86,4.22-11.87,6.36-17.88.28,0,.55,0,.83,0Z"/>
      </g>
    </g>
  </g>
</svg>