<?xml version="1.0" encoding="UTF-8"?>
<svg id="Ebene_2" xmlns="http://www.w3.org/2000/svg" viewBox="0 0 186.26 306.13">
  <defs>
    <style>
      .cls-1 {
        fill: none;
        stroke: #fff;
        stroke-miterlimit: 10;
        stroke-width: 4px;
      }

      .cls-2 {
        fill: #fff;
      }

      .cls-3 {
        fill: #b1aa8e;
      }
    </style>
  </defs>
  <g id="Ebene_1-2" data-name="Ebene_1">
    <g>
      <path class="cls-2" d="M121.03,15.35c-4.14,2.38-8.28,4.75-12.42,7.13.29.65.46,1.36.46,2.11,0,2.89-2.34,5.23-5.22,5.23s-5.22-2.34-5.22-5.23c0-1.78.95-3.28,2.3-4.22-2.58-6.78-5.16-13.55-7.79-20.37,0,0,0,.02,0,.03,0,0,0-.02,0-.03-2.62,6.81-5.2,13.59-7.79,20.37,1.36.94,2.3,2.44,2.3,4.22,0,2.89-2.34,5.23-5.22,5.23s-5.22-2.34-5.22-5.23c0-.75.17-1.46.46-2.11-4.14-2.38-8.28-4.75-12.42-7.13,3.23,8.21,6.46,16.41,9.69,24.62,6.11-1.25,12.16-1.75,18.21-1.68,6.05-.06,12.1.43,18.21,1.68,3.23-8.21,6.46-16.41,9.69-24.62Z"/>
      <path class="cls-3" d="M59.58,295.81c1.35.72,2.71,1.39,4.08,2.01v-1.63c-1.46,0-2.8-.16-4.08-.38Z"/>
      <path class="cls-2" d="M48.58,193.83l7.36-11.05c3.68,12.52,9.07,25.59,16.18,39.22,7.11,13.62,15.2,26.64,24.28,39.04,9.07,12.4,19.18,22.58,30.35,30.56.76.55,1.53,1.03,2.29,1.54,4.97-3.09,9.71-6.76,14.16-10.99-2.53-2.1-5.06-4.36-7.61-6.93-13.86-13.99-26-32.09-36.42-54.31-10.43-22.22-18.09-45.6-22.99-70.15l55.69-88.39c-3.49-2.38-7.11-4.42-10.83-6.17.01,1.37-.81,3.3-2.55,5.81l-69.89,110.47v-107.59c-9.82,7.44-18.53,17.35-25.75,29.1v165.7c7.51,12.22,16.65,22.42,26.95,29.96-.78-1.44-1.2-3.05-1.2-4.86v-90.96Z"/>
      <path class="cls-3" d="M113.59,53.18c-.09-.03-.18-.06-.27-.09v.07c.1,0,.17.01.27.01Z"/>
      <path class="cls-1" d="M93.13,304.13c50.33,0,91.13-56.99,91.13-127.29s-40.8-127.29-91.13-127.29S2,106.54,2,176.84s40.8,127.29,91.13,127.29Z"/>
    </g>
  </g>
</svg>